<?xml version="1.0" standalone="no"?>
<!DOCTYPE svg PUBLIC "-//W3C//DTD SVG 20010904//EN"
 "http://www.w3.org/TR/2001/REC-SVG-20010904/DTD/svg10.dtd">
<svg version="1.0" xmlns="http://www.w3.org/2000/svg"
 width="512.000000pt" height="512.000000pt" viewBox="0 0 512.000000 512.000000"
 preserveAspectRatio="xMidYMid meet">

<g transform="translate(0.000000,512.000000) scale(0.100000,-0.100000)"
fill="#000000" stroke="none">
<path d="M2574 4901 c-142 -23 -290 -103 -383 -208 -63 -71 -126 -190 -147
-279 -42 -181 22 -573 146 -890 61 -155 47 -249 -43 -296 -38 -20 -62 -23
-242 -28 -170 -6 -209 -10 -259 -28 -178 -65 -310 -209 -351 -383 -22 -94 -21
-351 2 -389 18 -31 51 -50 88 -50 32 0 32 -9 -5 -164 -35 -148 -103 -520 -98
-542 2 -10 49 31 129 113 115 116 127 132 133 173 9 60 63 302 82 367 l15 53
182 0 182 0 105 105 105 105 -364 0 -364 0 5 89 c9 150 67 244 186 303 l66 33
201 6 c173 5 208 8 255 27 80 31 137 77 180 144 80 123 80 242 0 467 -129 364
-168 642 -111 791 44 116 152 215 275 254 89 28 211 20 297 -21 115 -53 190
-136 229 -254 19 -56 22 -79 17 -184 -6 -154 -39 -302 -124 -555 -61 -182 -66
-201 -67 -287 0 -51 4 -97 10 -103 6 -6 44 25 116 98 l107 107 40 120 c123
372 164 663 117 835 -58 213 -245 401 -451 454 -77 19 -196 27 -261 17z"/>
<path d="M2397 2442 l-2107 -2107 75 -75 75 -75 2110 2110 2110 2110 -72 72
c-40 40 -75 73 -78 73 -3 0 -953 -948 -2113 -2108z"/>
<path d="M2571 4454 c-132 -66 -157 -229 -51 -334 105 -106 268 -81 334 51 44
89 30 176 -40 246 -68 68 -154 81 -243 37z"/>
<path d="M3632 3077 c-45 -45 -82 -85 -82 -88 0 -4 19 -10 43 -13 84 -14 178
-91 218 -181 17 -36 24 -75 27 -142 l4 -93 -363 0 -364 0 -105 -105 -104 -105
394 -2 394 -3 13 -45 c25 -87 82 -357 112 -535 54 -317 92 -669 111 -1010 5
-104 12 -220 14 -257 l5 -68 -779 0 c-733 0 -779 1 -784 18 -3 9 -44 184 -91
387 -48 204 -94 384 -101 401 -26 55 -108 72 -157 33 -32 -25 -31 -21 -111
-414 -36 -176 -70 -344 -76 -373 l-12 -52 -224 0 -224 0 1 83 c0 45 4 136 9
202 4 66 6 122 4 124 -3 3 -53 -44 -113 -103 l-108 -108 -6 -160 c-6 -134 -4
-166 9 -194 29 -62 44 -64 413 -64 357 0 383 3 415 52 8 13 32 108 53 211 21
103 40 187 43 187 3 0 28 -91 55 -202 45 -182 53 -204 78 -222 28 -21 36 -21
923 -24 994 -3 948 -6 981 63 16 33 16 56 5 308 -27 596 -86 1088 -188 1552
-20 94 -39 180 -42 193 -4 20 0 22 33 22 27 0 44 7 66 29 l29 29 0 169 c0 133
-4 182 -19 235 -33 120 -117 234 -223 302 -87 55 -84 56 -176 -37z"/>
</g>
</svg>
