<?xml version="1.0" standalone="no"?>
<!DOCTYPE svg PUBLIC "-//W3C//DTD SVG 20010904//EN"
 "http://www.w3.org/TR/2001/REC-SVG-20010904/DTD/svg10.dtd">
<svg version="1.0" xmlns="http://www.w3.org/2000/svg"
 width="1600.000000pt" height="1600.000000pt" viewBox="0 0 1600.000000 1600.000000"
 preserveAspectRatio="xMidYMid meet">

<g transform="translate(0.000000,1600.000000) scale(0.100000,-0.100000)"
fill="#000000" stroke="none">
<path d="M6267 14780 c-1326 -52 -2416 -289 -3272 -710 -472 -233 -886 -552
-1167 -900 -164 -204 -327 -487 -409 -710 -154 -423 -170 -906 -45 -1360 110
-400 327 -769 638 -1085 l138 -139 -413 -416 c-487 -490 -552 -566 -703 -826
-480 -826 -447 -1879 84 -2674 49 -74 122 -173 162 -220 105 -125 3526 -3566
3655 -3678 455 -391 1032 -602 1650 -603 574 -1 1085 167 1540 505 105 78 369
337 2150 2117 l2030 2029 95 0 c384 -1 854 -152 1175 -379 154 -108 347 -296
459 -444 274 -366 460 -850 545 -1417 36 -243 52 -459 61 -855 14 -576 46
-847 130 -1106 90 -276 219 -396 350 -329 263 134 482 900 580 2035 38 440 66
1263 56 1629 -15 533 -86 981 -231 1465 -448 1495 -1596 2873 -3286 3944 -645
409 -1427 794 -2014 992 l-110 37 -425 422 c-1950 1937 -2410 2398 -2453 2458
-64 90 -149 152 -263 191 -87 29 -95 30 -294 33 -113 1 -299 -2 -413 -6z
m-1560 -2368 l-1129 -1129 264 -101 c360 -137 576 -201 936 -273 l113 -23
1078 1078 1077 1077 1484 -1488 c817 -818 1991 -1995 2610 -2616 619 -620
1126 -1131 1128 -1135 5 -15 -4812 -4818 -4883 -4869 -156 -112 -311 -185
-490 -229 -135 -34 -366 -43 -507 -20 -249 41 -470 145 -673 317 -44 37 -852
841 -1796 1786 -1589 1591 -1721 1725 -1782 1819 -155 235 -220 455 -220 739
0 290 72 533 226 765 36 55 184 210 555 582 l506 507 35 -16 c323 -138 768
-283 1181 -382 745 -180 1685 -301 2645 -341 407 -17 372 -10 429 -81 135
-167 379 -301 618 -339 110 -18 321 -8 423 20 90 24 240 92 310 140 116 80
242 219 309 342 326 592 -12 1334 -669 1469 -112 23 -301 25 -412 4 -213 -40
-396 -136 -541 -282 l-72 -73 -78 0 c-42 0 -160 5 -262 10 -1656 90 -2801 324
-3605 739 -364 188 -632 398 -804 630 -199 269 -263 639 -169 980 171 624
1030 1143 2311 1395 297 59 766 123 912 125 l70 1 -1128 -1128z"/>
</g>
</svg>
