<?xml version="1.0"?>
<svg xmlns="http://www.w3.org/2000/svg" viewBox="0 0 50 50" enable-background="new 0 0 50 50">
    <path style="text-indent:0;text-align:start;line-height:normal;text-transform:none;block-progression:tb;-inkscape-font-specification:Bitstream Vera Sans" d="M 13.90625 1.96875 A 1.0001 1.0001 0 0 0 13.8125 2 L 3 2 A 1.0001 1.0001 0 0 0 2.90625 2 A 1.0001 1.0001 0 0 0 2 3 L 2 13.53125 A 1.0043849 1.0043849 0 0 0 2 14.40625 L 2 24.6875 A 1.001098 1.001098 0 0 0 2 25.28125 L 2 35.53125 A 1.0043849 1.0043849 0 0 0 2 36.40625 L 2 47 A 1.0001 1.0001 0 0 0 3 48 L 24.8125 48 L 25.21875 48 L 35.8125 48 L 36.21875 48 L 47 48 A 1.0001 1.0001 0 0 0 48 47 L 48 36.1875 A 1.0001 1.0001 0 0 0 48 35.78125 L 48 25.1875 A 1.0001 1.0001 0 0 0 48 24.78125 L 48 14.1875 A 1.0001 1.0001 0 0 0 48 13.78125 L 48 3 A 1.0001 1.0001 0 0 0 47 2 L 36.1875 2 A 1.0001 1.0001 0 0 0 35.78125 2 L 25.1875 2 A 1.0001 1.0001 0 0 0 24.90625 1.96875 A 1.0001 1.0001 0 0 0 24.78125 2 L 14.21875 2 A 1.0001 1.0001 0 0 0 13.90625 1.96875 z M 4 4 L 13 4 L 13 13 L 4 13 L 4 4 z M 15 4 L 24 4 L 24 13 L 15 13 L 15 4 z M 26 4 L 35 4 L 35 13 L 26 13 L 26 4 z M 37 4 L 46 4 L 46 13 L 37 13 L 37 4 z M 4 15 L 13 15 L 13 24 L 4 24 L 4 15 z M 15 15 L 24 15 L 24 24 L 15 24 L 15 15 z M 26 15 L 35 15 L 35 24 L 26 24 L 26 15 z M 37 15 L 46 15 L 46 24 L 37 24 L 37 15 z M 4 26 L 13 26 L 13 35 L 4 35 L 4 26 z M 15 26 L 24 26 L 24 35 L 15 35 L 15 26 z M 26 26 L 35 26 L 35 35 L 26 35 L 26 26 z M 37 26 L 46 26 L 46 35 L 37 35 L 37 26 z M 4 37 L 13 37 L 13 46 L 4 46 L 4 37 z M 15 37 L 24 37 L 24 46 L 15 46 L 15 37 z M 26 37 L 35 37 L 35 46 L 26 46 L 26 37 z M 37 37 L 46 37 L 46 46 L 37 46 L 37 37 z"/>
</svg>
