<?xml version="1.0" standalone="no"?>
<!DOCTYPE svg PUBLIC "-//W3C//DTD SVG 20010904//EN"
 "http://www.w3.org/TR/2001/REC-SVG-20010904/DTD/svg10.dtd">
<svg version="1.0" xmlns="http://www.w3.org/2000/svg"
 width="614.000000pt" height="506.000000pt" viewBox="0 0 614.000000 506.000000"
 preserveAspectRatio="xMidYMid meet">

<g transform="translate(0.000000,506.000000) scale(0.100000,-0.100000)"
fill="#000000" stroke="none">
<path d="M1993 4923 l-63 -4 0 -54 0 -55 -92 0 c-51 0 -130 -3 -175 -7 l-83
-6 0 -53 0 -54 -38 0 c-22 0 -73 -3 -115 -6 l-76 -7 -3 -51 -3 -51 -65 -5 -65
-5 -3 -57 -3 -58 -59 0 -60 0 0 -59 0 -59 -62 -6 c-35 -3 -84 -8 -110 -12 -48
-6 -48 -6 -48 -45 0 -52 -27 -79 -79 -79 -39 0 -39 0 -45 -47 -4 -27 -9 -76
-12 -110 l-6 -63 -42 0 c-55 0 -76 -22 -76 -78 l0 -42 -43 0 c-57 0 -77 -21
-77 -83 0 -46 -1 -47 -31 -47 -50 0 -69 -16 -69 -58 0 -21 -4 -42 -9 -47 -6
-6 -11 -37 -13 -70 l-3 -60 -51 -3 -51 -3 -6 -82 c-4 -45 -7 -124 -7 -174 l0
-93 -54 0 -53 0 -7 -92 c-3 -50 -6 -212 -6 -360 l0 -268 -50 0 -50 0 0 -60 0
-60 50 0 50 0 0 -190 c0 -176 2 -193 23 -242 13 -29 29 -75 37 -101 9 -34 20
-52 37 -60 21 -9 23 -17 23 -79 0 -51 9 -96 36 -178 32 -100 37 -110 60 -110
24 0 24 -1 24 -101 0 -127 6 -139 70 -139 l49 0 3 -118 3 -117 57 -3 57 -3 3
-57 3 -57 58 -3 57 -3 0 -59 0 -60 60 0 60 0 0 -60 0 -60 60 0 59 0 3 -57 3
-58 57 -3 57 -3 3 -57 3 -57 118 -3 117 -3 0 -59 0 -60 125 0 125 0 0 -54 0
-53 83 -6 c106 -9 299 -9 415 -1 l92 7 0 53 0 53 118 3 117 3 3 58 3 57 59 0
60 0 0 60 0 60 60 0 60 0 0 60 0 60 60 0 59 0 3 62 3 63 51 3 51 3 6 82 c4 45
7 124 7 175 l0 92 50 0 50 0 0 120 0 120 -50 0 -50 0 0 180 0 180 55 0 55 0 0
46 c0 71 11 84 75 84 l55 0 0 55 0 55 119 0 119 0 4 -97 c1 -54 1 -115 0 -135
-4 -34 -6 -37 -40 -40 -34 -3 -37 -6 -45 -45 -5 -27 -14 -43 -23 -43 -11 0
-14 -22 -14 -120 l0 -120 -60 0 -59 0 -3 -122 -3 -123 -57 -3 -58 -3 0 -174 0
-175 60 0 60 0 0 -60 0 -60 164 0 c90 0 171 3 180 6 12 5 16 20 16 60 l0 53
58 3 57 3 3 58 3 57 59 0 60 0 0 60 0 60 60 0 60 0 0 60 0 59 58 3 57 3 3 57
3 57 57 3 57 3 3 57 3 57 57 3 57 3 3 63 3 62 53 0 54 0 7 114 7 114 114 7
114 7 0 54 0 54 65 0 c37 0 65 4 65 10 0 6 23 10 50 10 l50 0 0 49 c0 55 8 61
88 61 l42 0 0 44 c0 70 5 76 65 76 l53 0 7 115 7 115 53 0 52 0 7 77 c3 42 6
150 6 240 l0 163 54 0 54 0 7 120 7 120 49 0 c26 0 50 4 53 8 2 4 8 58 12 120
l7 112 58 0 59 0 0 65 0 65 55 0 55 0 0 55 0 54 63 3 62 3 3 58 3 57 59 0 60
0 0 60 0 59 58 3 57 3 3 63 3 62 49 0 48 0 7 53 c4 28 9 242 11 475 l4 422
-60 0 -60 0 0 60 0 60 -32 0 c-18 0 -70 -3 -115 -7 l-82 -6 -3 -51 -3 -51 -62
-3 -63 -3 0 -59 0 -60 -92 0 c-51 0 -130 -3 -175 -7 l-82 -6 -3 -51 -3 -51
-117 -9 -118 -8 0 -54 c0 -50 -2 -54 -27 -60 -32 -8 -43 -20 -43 -49 0 -11 -6
-31 -13 -45 -7 -14 -21 -51 -32 -82 l-19 -57 -55 -3 -56 -3 -3 -60 c-3 -66
-11 -75 -64 -75 -52 0 -68 20 -68 86 l0 54 -55 0 -54 0 -3 58 -3 57 -57 3 -57
3 -3 57 -3 57 -55 3 c-30 2 -58 9 -62 15 -4 7 -8 31 -8 54 l0 41 -115 7 -115
7 0 49 c0 47 -1 48 -37 58 -21 6 -75 11 -120 11 l-83 0 0 60 0 60 -120 0 -120
0 0 48 c0 26 -5 53 -12 60 -8 8 -49 12 -119 12 l-108 0 -3 53 -3 52 -65 6
c-67 7 -1196 8 -1307 2z m417 -653 l0 -60 120 0 120 0 0 -240 0 -240 -60 0
-60 0 0 -60 0 -60 -240 0 -240 0 0 120 0 120 -60 0 -60 0 0 120 0 120 60 0 60
0 0 60 0 60 60 0 60 0 0 60 0 60 120 0 120 0 0 -60z m1440 -360 l0 -60 60 0
60 0 0 -240 0 -240 -60 0 -60 0 0 -60 0 -60 -180 0 -180 0 0 60 0 60 -60 0
-60 0 0 120 0 120 -60 0 -60 0 0 60 0 60 60 0 60 0 0 60 0 60 60 0 60 0 0 60
0 60 180 0 180 0 0 -60z m-2400 -480 l0 -60 60 0 60 0 0 -240 0 -240 -60 0
-60 0 0 -60 0 -60 -180 0 -180 0 0 60 0 60 -60 0 -60 0 0 60 0 60 -60 0 -60 0
0 120 0 120 60 0 60 0 0 120 0 120 240 0 240 0 0 -60z m3720 0 l0 -60 60 0 60
0 0 -60 0 -60 -60 0 -60 0 0 -60 0 -60 -60 0 -60 0 0 -120 0 -120 -60 0 -59 0
-3 -62 -3 -63 -57 3 -58 4 0 -121 0 -121 -60 0 -60 0 0 -60 0 -60 -60 0 -60 0
0 -120 0 -120 -60 0 -60 0 0 -60 0 -60 -60 0 -60 0 0 -60 0 -60 -60 0 -60 0 0
-120 0 -120 -60 0 -60 0 0 -60 0 -60 -60 0 -60 0 0 -60 0 -60 -60 0 -60 0 0
-60 0 -60 -60 0 -60 0 0 -60 0 -60 -60 0 -60 0 0 -120 0 -120 -60 0 -60 0 0
180 0 180 60 0 60 0 0 120 0 120 60 0 60 0 0 66 0 66 60 -7 60 -7 0 121 0 121
60 0 60 0 0 120 0 120 60 0 60 0 0 66 0 67 60 -6 60 -7 0 120 0 120 60 0 60 0
0 120 0 120 60 0 60 0 0 60 0 60 60 0 60 0 0 60 0 60 60 0 60 0 0 120 0 120
60 0 60 0 0 60 0 60 60 0 60 0 0 60 0 60 120 0 120 0 0 -60z m-3840 -1320 l0
-60 60 0 60 0 0 -60 0 -60 60 0 60 0 0 -120 0 -120 -60 0 -60 0 0 -60 0 -60
-60 0 -60 0 0 -60 0 -60 -180 0 -180 0 0 60 0 60 -60 0 -60 0 0 240 0 240 60
0 60 0 0 60 0 60 180 0 180 0 0 -60z"/>
</g>
</svg>
